<?xml version="1.0" encoding="UTF-8"?>
<svg width="189px" height="189px" viewBox="0 0 189 189" version="1.1" xmlns="http://www.w3.org/2000/svg" xmlns:xlink="http://www.w3.org/1999/xlink">
    <!-- Generator: Sketch 63.1 (92452) - https://sketch.com -->
    <title>Combined Shape</title>
    <desc>Created with Sketch.</desc>
    <defs>
        <path d="M94.5,0 C146.690909,0 189,42.3090911 189,94.5 C189,99.3908549 188.628453,104.19493 187.912045,108.885541 C187.508631,108.752518 187.508631,108.752518 187.09375,108.634277 C184.066406,107.771484 184.066406,107.771484 180.40332,107.771484 C174.560547,107.771484 174.560547,107.771484 170.186035,109.678711 C165.811523,111.585938 165.811523,111.585938 162.890137,114.931152 C159.96875,118.276367 159.96875,118.276367 158.500488,122.787109 C157.032227,127.297852 157.032227,127.297852 157.032227,132.474609 C157.032227,137.530273 157.032227,137.530273 158.636719,141.602051 C160.241211,145.673828 160.241211,145.673828 163.117188,148.564941 C165.640311,151.101344 165.640311,151.101344 169.025558,152.612519 C151.730116,174.760404 124.777976,189 94.5,189 C42.3090911,189 0,146.690909 0,94.5 C0,42.3090911 42.3090911,0 94.5,0 Z M96.8183594,107.771484 C90.9755859,107.771484 90.9755859,107.771484 86.6010742,109.678711 C82.2265625,111.585938 82.2265625,111.585938 79.3051758,114.931152 C76.3837891,118.276367 76.3837891,118.276367 74.9155273,122.787109 C73.4472656,127.297852 73.4472656,127.297852 73.4472656,132.474609 C73.4472656,137.530273 73.4472656,137.530273 75.0517578,141.602051 C76.65625,145.673828 76.65625,145.673828 79.5322266,148.564941 C82.4082031,151.456055 82.4082031,151.456055 86.4042969,153.015137 C90.4003906,154.574219 90.4003906,154.574219 95.1835938,154.574219 C100.330078,154.574219 100.330078,154.574219 104.568359,152.924316 C108.806641,151.274414 108.806641,151.274414 111.833984,148.141113 C114.861328,145.007812 114.861328,145.007812 116.526367,140.481934 C118.191406,135.956055 118.191406,135.956055 118.191406,130.234375 C118.191406,127.358398 118.191406,127.358398 117.631348,124.573242 C117.071289,121.788086 117.071289,121.788086 115.920898,119.290527 C114.770508,116.792969 114.770508,116.792969 113.014648,114.673828 C111.258789,112.554688 111.258789,112.554688 108.897461,111.025879 C106.536133,109.49707 106.536133,109.49707 103.508789,108.634277 C100.481445,107.771484 100.481445,107.771484 96.8183594,107.771484 Z M55.0712891,107.801758 C51.3779297,107.801758 51.3779297,107.801758 48.8198242,108.376953 C46.2617188,108.952148 46.2617188,108.952148 44.6572266,109.633301 C43.0527344,110.314453 43.0527344,110.314453 42.2958984,110.874512 C41.5390625,111.43457 41.5390625,111.43457 41.4785156,111.43457 C41.4785156,111.585938 41.4785156,111.585938 41.1757812,112.645508 C40.8730469,113.705078 40.8730469,113.705078 40.4946289,115.158203 C40.1162109,116.611328 40.1162109,116.611328 39.8134766,118.185547 C39.5107422,119.759766 39.5107422,119.759766 39.5107422,120.94043 C39.5107422,121.182617 39.5107422,121.182617 39.6166992,121.455078 C39.7226562,121.727539 39.7226562,121.727539 40.0556641,121.727539 C40.4189453,121.727539 40.4189453,121.727539 41.0244141,121.333984 C42.75,120.213867 42.75,120.213867 44.5361328,119.684082 C46.3222656,119.154297 46.3222656,119.154297 48.0478516,119.154297 C49.4101562,119.154297 49.4101562,119.154297 50.5908203,119.487305 C51.7714844,119.820312 51.7714844,119.820312 52.6645508,120.471191 C53.5576172,121.12207 53.5576172,121.12207 54.0571289,122.060547 C54.5566406,122.999023 54.5566406,122.999023 54.5566406,124.209961 C54.5566406,125.178711 54.5566406,125.178711 54.1933594,126.283691 C53.8300781,127.388672 53.8300781,127.388672 53.0429688,128.660156 C52.0439453,130.204102 52.0439453,130.204102 50.5302734,132.429199 C49.0166016,134.654297 49.0166016,134.654297 47.2001953,137.257812 C45.3837891,139.861328 45.3837891,139.861328 43.3857422,142.691895 C41.3876953,145.522461 41.3876953,145.522461 39.4501953,148.277344 C38.8144531,149.246094 38.8144531,149.246094 38.4057617,150.00293 C37.9970703,150.759766 37.9970703,150.759766 37.9970703,151.365234 C37.9970703,152.243164 37.9970703,152.243164 39.1323242,152.697266 C40.1966248,153.122986 40.1966248,153.122986 42.8174648,153.149593 L43.1738281,153.151367 L45.8984375,153.151367 C47.1396484,153.151367 47.1396484,153.151367 48.3657227,153.13623 C49.5917969,153.121094 49.5917969,153.121094 50.878418,153.105957 C52.1650391,153.09082 52.1650391,153.09082 53.7543945,153.075684 C55.34375,153.060547 55.34375,153.060547 57.3115234,153.030273 C59.2792969,153 59.2792969,153 61.8525391,152.969727 C62.2158203,152.90918 62.2158203,152.90918 62.7304688,152.848633 C63.2451172,152.788086 63.2451172,152.788086 63.8505859,152.182617 C63.9111328,152.182617 63.9111328,152.182617 63.9262695,152.046387 C63.9376221,151.944214 63.9376221,151.944214 63.9745178,151.918671 L64.0019531,151.910156 L68.3613281,143.766602 C68.3613281,143.706055 68.3613281,143.706055 68.5883789,143.282227 C68.8154297,142.858398 68.8154297,142.858398 68.8154297,142.43457 C68.8154297,141.768555 68.8154297,141.768555 67.2714844,141.768555 C66.5449219,141.768555 66.5449219,141.768555 65.4702148,141.844238 C64.3955078,141.919922 64.3955078,141.919922 63.1694336,142.010742 C61.9433594,142.101562 61.9433594,142.101562 60.6870117,142.237793 C59.4306641,142.374023 59.4306641,142.374023 58.3408203,142.464844 C57.2509766,142.555664 57.2509766,142.555664 56.418457,142.631348 C55.5859375,142.707031 55.5859375,142.707031 55.2226562,142.707031 C54.9804688,142.707031 54.9804688,142.707031 54.9804688,142.676758 C54.9804688,142.676758 54.9804688,142.676758 55.3740234,142.056152 C55.7675781,141.435547 55.7675781,141.435547 56.418457,140.391113 C57.0693359,139.34668 57.0693359,139.34668 57.9321289,137.984375 C58.7949219,136.62207 58.7949219,136.62207 59.7182617,135.153809 C60.6416016,133.685547 60.6416016,133.685547 61.5498047,132.202148 C62.4580078,130.71875 62.4580078,130.71875 63.2451172,129.432129 C64.0322266,128.145508 64.0322266,128.145508 64.6074219,127.146484 C65.1826172,126.147461 65.1826172,126.147461 65.4248047,125.632812 C66.3935547,123.998047 66.3935547,123.998047 66.8476562,122.469238 C67.3017578,120.94043 67.3017578,120.94043 67.3017578,119.457031 C67.3017578,117.004883 67.3017578,117.004883 66.2119141,114.870605 C65.1220703,112.736328 65.1220703,112.736328 63.3813477,111.162109 C61.640625,109.587891 61.640625,109.587891 59.4458008,108.694824 C57.2509766,107.801758 57.2509766,107.801758 55.0712891,107.801758 Z M138.65625,107.801758 C134.962891,107.801758 134.962891,107.801758 132.404785,108.376953 C129.84668,108.952148 129.84668,108.952148 128.242188,109.633301 C126.637695,110.314453 126.637695,110.314453 125.880859,110.874512 C125.124023,111.43457 125.124023,111.43457 125.063477,111.43457 C125.063477,111.585938 125.063477,111.585938 124.760742,112.645508 C124.458008,113.705078 124.458008,113.705078 124.07959,115.158203 C123.701172,116.611328 123.701172,116.611328 123.398438,118.185547 C123.095703,119.759766 123.095703,119.759766 123.095703,120.94043 C123.095703,121.182617 123.095703,121.182617 123.20166,121.455078 C123.307617,121.727539 123.307617,121.727539 123.640625,121.727539 C124.003906,121.727539 124.003906,121.727539 124.609375,121.333984 C126.334961,120.213867 126.334961,120.213867 128.121094,119.684082 C129.907227,119.154297 129.907227,119.154297 131.632812,119.154297 C132.995117,119.154297 132.995117,119.154297 134.175781,119.487305 C135.356445,119.820312 135.356445,119.820312 136.249512,120.471191 C137.142578,121.12207 137.142578,121.12207 137.64209,122.060547 C138.141602,122.999023 138.141602,122.999023 138.141602,124.209961 C138.141602,125.178711 138.141602,125.178711 137.77832,126.283691 C137.415039,127.388672 137.415039,127.388672 136.62793,128.660156 C135.628906,130.204102 135.628906,130.204102 134.115234,132.429199 C132.601562,134.654297 132.601562,134.654297 130.785156,137.257812 C128.96875,139.861328 128.96875,139.861328 126.970703,142.691895 C124.972656,145.522461 124.972656,145.522461 123.035156,148.277344 C122.399414,149.246094 122.399414,149.246094 121.990723,150.00293 C121.582031,150.759766 121.582031,150.759766 121.582031,151.365234 C121.582031,152.243164 121.582031,152.243164 122.717285,152.697266 C123.781586,153.122986 123.781586,153.122986 126.402426,153.149593 L126.758789,153.151367 L129.483398,153.151367 C130.724609,153.151367 130.724609,153.151367 131.950684,153.13623 C133.176758,153.121094 133.176758,153.121094 134.463379,153.105957 C135.75,153.09082 135.75,153.09082 137.339355,153.075684 C138.928711,153.060547 138.928711,153.060547 140.896484,153.030273 C142.864258,153 142.864258,153 145.4375,152.969727 C145.800781,152.90918 145.800781,152.90918 146.31543,152.848633 C146.830078,152.788086 146.830078,152.788086 147.435547,152.182617 C147.496094,152.182617 147.496094,152.182617 147.51123,152.046387 C147.522583,151.944214 147.522583,151.944214 147.559479,151.918671 L147.586914,151.910156 L151.946289,143.766602 C151.946289,143.706055 151.946289,143.706055 152.17334,143.282227 C152.400391,142.858398 152.400391,142.858398 152.400391,142.43457 C152.400391,141.768555 152.400391,141.768555 150.856445,141.768555 C150.129883,141.768555 150.129883,141.768555 149.055176,141.844238 C147.980469,141.919922 147.980469,141.919922 146.754395,142.010742 C145.52832,142.101562 145.52832,142.101562 144.271973,142.237793 C143.015625,142.374023 143.015625,142.374023 141.925781,142.464844 C140.835938,142.555664 140.835938,142.555664 140.003418,142.631348 C139.170898,142.707031 139.170898,142.707031 138.807617,142.707031 C138.56543,142.707031 138.56543,142.707031 138.56543,142.676758 C138.56543,142.676758 138.56543,142.676758 138.958984,142.056152 C139.352539,141.435547 139.352539,141.435547 140.003418,140.391113 C140.654297,139.34668 140.654297,139.34668 141.51709,137.984375 C142.379883,136.62207 142.379883,136.62207 143.303223,135.153809 C144.226562,133.685547 144.226562,133.685547 145.134766,132.202148 C146.042969,130.71875 146.042969,130.71875 146.830078,129.432129 C147.617188,128.145508 147.617188,128.145508 148.192383,127.146484 C148.767578,126.147461 148.767578,126.147461 149.009766,125.632812 C149.978516,123.998047 149.978516,123.998047 150.432617,122.469238 C150.886719,120.94043 150.886719,120.94043 150.886719,119.457031 C150.886719,117.004883 150.886719,117.004883 149.796875,114.870605 C148.707031,112.736328 148.707031,112.736328 146.966309,111.162109 C145.225586,109.587891 145.225586,109.587891 143.030762,108.694824 C140.835938,107.801758 140.835938,107.801758 138.65625,107.801758 Z M96.515625,116.671875 C98.1806641,116.671875 98.1806641,116.671875 99.4824219,117.277344 C100.78418,117.882812 100.78418,117.882812 101.75293,118.927246 C102.72168,119.97168 102.72168,119.97168 103.417969,121.318848 C104.114258,122.666016 104.114258,122.666016 104.538086,124.164551 C104.961914,125.663086 104.961914,125.663086 105.158691,127.176758 C105.355469,128.69043 105.355469,128.69043 105.355469,130.052734 C105.355469,131.717773 105.355469,131.717773 105.158691,133.503906 C104.961914,135.290039 104.961914,135.290039 104.507812,136.985352 C104.053711,138.680664 104.053711,138.680664 103.296875,140.179199 C102.540039,141.677734 102.540039,141.677734 101.450195,142.812988 C100.360352,143.948242 100.360352,143.948242 98.8769531,144.614258 C97.3935547,145.280273 97.3935547,145.280273 95.4560547,145.280273 C92.7617188,145.280273 92.7617188,145.280273 91.0209961,144.008789 C89.2802734,142.737305 89.2802734,142.737305 88.28125,140.708984 C87.2822266,138.680664 87.2822266,138.680664 86.9038086,136.198242 C86.5253906,133.71582 86.5253906,133.71582 86.5253906,131.293945 C86.5253906,129.598633 86.5253906,129.598633 86.722168,127.85791 C86.9189453,126.117188 86.9189453,126.117188 87.3730469,124.497559 C87.8271484,122.87793 87.8271484,122.87793 88.5688477,121.455078 C89.3105469,120.032227 89.3105469,120.032227 90.4306641,118.972656 C91.5507812,117.913086 91.5507812,117.913086 93.0493164,117.29248 C94.5478516,116.671875 94.5478516,116.671875 96.515625,116.671875 Z M180.100586,116.671875 C181.765625,116.671875 181.765625,116.671875 183.067383,117.277344 C184.369141,117.882812 184.369141,117.882812 185.337891,118.927246 C185.52387,119.127755 185.52387,119.127755 185.699807,119.339421 C183.28955,128.215629 179.617597,136.570411 174.889273,144.201911 C174.743794,144.10947 174.743794,144.10947 174.605957,144.008789 C172.865234,142.737305 172.865234,142.737305 171.866211,140.708984 C170.867188,138.680664 170.867188,138.680664 170.48877,136.198242 C170.110352,133.71582 170.110352,133.71582 170.110352,131.293945 C170.110352,129.598633 170.110352,129.598633 170.307129,127.85791 C170.503906,126.117188 170.503906,126.117188 170.958008,124.497559 C171.412109,122.87793 171.412109,122.87793 172.153809,121.455078 C172.895508,120.032227 172.895508,120.032227 174.015625,118.972656 C175.135742,117.913086 175.135742,117.913086 176.634277,117.29248 C178.132812,116.671875 178.132812,116.671875 180.100586,116.671875 Z" id="path-1"></path>
    </defs>
    <g id="Page-1" stroke="none" stroke-width="1" fill="none" fill-rule="evenodd">
        <g id="Artboard" transform="translate(-1.000000, -1.000000)">
            <g id="Group" transform="translate(1.000000, 1.000000)">
                <mask id="mask-2" fill="white">
                    <use xlink:href="#path-1"></use>
                </mask>
                <use id="Combined-Shape" fill="#5045E4" fill-rule="nonzero" xlink:href="#path-1"></use>
            </g>
        </g>
    </g>
</svg>